<?xml version="1.0" encoding="utf-8"?>
<!-- Generator: Adobe Illustrator 27.5.0, SVG Export Plug-In . SVG Version: 6.00 Build 0)  -->
<svg version="1.1" xmlns="http://www.w3.org/2000/svg" xmlns:xlink="http://www.w3.org/1999/xlink" x="0px" y="0px"
	 viewBox="0 0 500 500" style="enable-background:new 0 0 500 500;" xml:space="preserve">
<g id="Background">
</g>
<g id="Objects">
	<g>
		<path style="fill:none;stroke:#212121;stroke-width:6;stroke-linejoin:round;stroke-miterlimit:10;" d="M265.955,281.308h-31.91
			c-24.8,0-44.904,20.104-44.904,44.904v42.427c17.258,12.029,38.227,19.104,60.859,19.104s43.6-7.075,60.859-19.104v-42.427
			C310.859,301.412,290.755,281.308,265.955,281.308z"/>
		<path style="fill:none;stroke:#212121;stroke-width:6;stroke-linejoin:round;stroke-miterlimit:10;" d="M206.13,228.788h-6.498
			c-5.794,0-10.49-4.697-10.49-10.49v-12.216c0-5.794,4.697-10.49,10.49-10.49h6.498V228.788z"/>
		<path style="fill:none;stroke:#212121;stroke-width:6;stroke-linejoin:round;stroke-miterlimit:10;" d="M293.87,228.788h6.498
			c5.794,0,10.49-4.697,10.49-10.49v-12.216c0-5.794-4.697-10.49-10.49-10.49h-6.498V228.788z"/>
		<path style="fill:none;stroke:#212121;stroke-width:6;stroke-linejoin:round;stroke-miterlimit:10;" d="M300.981,227.876
			c0,0,2.671,27.445-43.582,26.21"/>
		<circle style="fill:#212121;" cx="254.365" cy="253.934" r="6.108"/>
		<path style="fill:none;stroke:#212121;stroke-width:4;stroke-linecap:round;stroke-linejoin:round;stroke-miterlimit:10;" d="
			M258.119,207.962c0,0,0-12.829,9.098-12.941c9.098-0.112,8.9,12.941,8.9,12.941"/>
		<path style="fill:none;stroke:#212121;stroke-width:4;stroke-linecap:round;stroke-linejoin:round;stroke-miterlimit:10;" d="
			M224.067,207.962c0,0,0-12.829,9.098-12.941c9.098-0.112,8.9,12.941,8.9,12.941"/>
		<path style="fill:none;stroke:#212121;stroke-width:4;stroke-linecap:round;stroke-linejoin:round;stroke-miterlimit:10;" d="
			M235.037,226.242h29.926c0,0,2.42,18.945-14.963,18.945S235.037,226.242,235.037,226.242z"/>
		<path style="fill:none;stroke:#212121;stroke-width:4;stroke-linecap:round;stroke-linejoin:round;stroke-miterlimit:10;" d="
			M247.897,219.168c0,0,2.753,2.735,5.436,0"/>
		<path style="fill:none;stroke:#212121;stroke-width:8;stroke-linejoin:round;stroke-miterlimit:10;" d="M197.635,195.996
			c0,0-3.288-51.609,52.98-51.609s51.755,51.609,51.755,51.609"/>
		
			<line style="fill:none;stroke:#212121;stroke-width:4;stroke-linecap:round;stroke-linejoin:round;stroke-miterlimit:10;" x1="199.706" y1="374.49" x2="199.706" y2="341.823"/>
		
			<line style="fill:none;stroke:#212121;stroke-width:4;stroke-linecap:round;stroke-linejoin:round;stroke-miterlimit:10;" x1="199.706" y1="321.99" x2="199.706" y2="331.157"/>
		
			<line style="fill:none;stroke:#212121;stroke-width:4;stroke-linecap:round;stroke-linejoin:round;stroke-miterlimit:10;" x1="197.635" y1="228.593" x2="197.635" y2="212.19"/>
		
			<line style="fill:none;stroke:#212121;stroke-width:4;stroke-linecap:round;stroke-linejoin:round;stroke-miterlimit:10;" x1="301.102" y1="228.593" x2="301.102" y2="212.19"/>
		<path style="fill:none;stroke:#212121;stroke-width:6;stroke-linejoin:round;stroke-miterlimit:10;" d="M270.5,169.449
			c0,0-20.24,25.445-64.37,26.195l-8.494,0.352c0,0-14.885-31.98,15.115-51.537c29.939-19.518,57.638-8.303,57.75-8.258
			c1.767,0.717,6.773-0.921,8.931-0.729c15.108,1.35,21.17,17.529,23.469,30.388c1.273,7.122,1.684,14.439,1.401,21.665
			c-0.371,9.481-3.859,9.236-12.322,6.668c-4.932-1.496-9.695-3.871-13.442-7.463C276.26,184.549,267.551,172.767,270.5,169.449z"/>
		<path style="fill:none;stroke:#212121;stroke-width:6;stroke-linejoin:round;stroke-miterlimit:10;" d="M291.978,194.194
			c-4.932-1.496-9.695-3.871-13.442-7.463c-2.275-2.182-10.985-13.964-8.036-17.281c0,0-20.24,25.445-64.37,26.195v25.319
			c0,24.229,19.641,43.87,43.87,43.87h0c24.229,0,43.87-19.641,43.87-43.87v-26.215C293.268,194.579,292.64,194.395,291.978,194.194
			z"/>
		<path style="fill:none;stroke:#212121;stroke-width:6;stroke-linejoin:round;stroke-miterlimit:10;" d="M251.517,264.795
			c-0.503,0.032-1.008,0.051-1.517,0.051c-0.508,0-1.013-0.018-1.515-0.051c-3.624-0.123-7.135-0.686-10.485-1.637v18.15h24v-18.15
			C258.651,264.109,255.141,264.672,251.517,264.795z"/>
		
			<line style="fill:none;stroke:#212121;stroke-width:6;stroke-linejoin:round;stroke-miterlimit:10;" x1="201" y1="228.788" x2="201" y2="295.815"/>
		
			<line style="fill:none;stroke:#212121;stroke-width:6;stroke-linejoin:round;stroke-miterlimit:10;" x1="298.333" y1="228.788" x2="298.333" y2="295.815"/>
		<g>
			<path style="fill:#212121;" d="M276.319,202.969c0.119,0.108,0.431,0.24,0.671,0.34c0.259,0.107,0.529,0.2,0.803,0.281
				c0.55,0.162,1.12,0.27,1.705,0.311c0.586,0.042,1.174-0.012,1.773-0.151c0.602-0.138,1.167-0.426,1.728-0.796
				c-0.304,0.582-0.696,1.18-1.231,1.663c-0.527,0.484-1.148,0.913-1.823,1.232c-0.673,0.321-1.391,0.567-2.13,0.74
				c-0.37,0.087-0.745,0.157-1.128,0.206c-0.402,0.048-0.73,0.095-1.243,0.077L276.319,202.969z"/>
		</g>
		<g>
			<path style="fill:#212121;" d="M224.504,206.873c-0.513,0.019-0.841-0.029-1.243-0.077c-0.383-0.049-0.758-0.12-1.128-0.206
				c-0.739-0.173-1.457-0.419-2.13-0.74c-0.674-0.319-1.295-0.748-1.823-1.232c-0.535-0.483-0.927-1.081-1.231-1.663
				c0.561,0.37,1.126,0.658,1.728,0.796c0.598,0.139,1.187,0.192,1.773,0.151c0.585-0.042,1.155-0.15,1.705-0.311
				c0.274-0.081,0.545-0.174,0.803-0.281c0.241-0.1,0.552-0.231,0.671-0.34L224.504,206.873z"/>
		</g>
		<path style="fill:none;stroke:#212121;stroke-width:6;stroke-linejoin:round;stroke-miterlimit:10;" d="M250,339.455
			l28.717-56.295c-4.047-1.198-8.327-1.851-12.762-1.851H250h-15.955c-4.435,0-8.715,0.653-12.762,1.851L250,339.455z"/>
		<path style="fill:none;stroke:#212121;stroke-width:6;stroke-linejoin:round;stroke-miterlimit:10;" d="M230.753,301.724
			c0,0,17.442,7.019,38.493,0L250,339.455L230.753,301.724z"/>
		
			<line style="fill:none;stroke:#212121;stroke-width:4;stroke-linecap:round;stroke-linejoin:round;stroke-miterlimit:10;" x1="209.614" y1="238.123" x2="209.614" y2="264.833"/>
		
			<line style="fill:none;stroke:#212121;stroke-width:4;stroke-linecap:round;stroke-linejoin:round;stroke-miterlimit:10;" x1="209.614" y1="273.455" x2="209.614" y2="279.205"/>
		
			<line style="fill:none;stroke:#212121;stroke-width:4;stroke-linecap:round;stroke-linejoin:round;stroke-miterlimit:10;" x1="219.36" y1="252.35" x2="219.36" y2="283.766"/>
		
			<line style="fill:none;stroke:#212121;stroke-width:4;stroke-linecap:round;stroke-linejoin:round;stroke-miterlimit:10;" x1="230.064" y1="260.042" x2="230.064" y2="273.455"/>
		
			<line style="fill:none;stroke:#212121;stroke-width:4;stroke-linecap:round;stroke-linejoin:round;stroke-miterlimit:10;" x1="272.357" y1="258.711" x2="272.357" y2="281.767"/>
		
			<line style="fill:none;stroke:#212121;stroke-width:4;stroke-linecap:round;stroke-linejoin:round;stroke-miterlimit:10;" x1="290.804" y1="237.074" x2="290.804" y2="270.756"/>
		
			<line style="fill:none;stroke:#212121;stroke-width:4;stroke-linecap:round;stroke-linejoin:round;stroke-miterlimit:10;" x1="290.804" y1="276.33" x2="290.804" y2="288.807"/>
		
			<line style="fill:none;stroke:#212121;stroke-width:4;stroke-linecap:round;stroke-linejoin:round;stroke-miterlimit:10;" x1="281.513" y1="251.478" x2="281.513" y2="262.301"/>
		
			<line style="fill:none;stroke:#212121;stroke-width:4;stroke-linecap:round;stroke-linejoin:round;stroke-miterlimit:10;" x1="281.513" y1="268.058" x2="281.513" y2="272.233"/>
		
			<line style="fill:none;stroke:#212121;stroke-width:4;stroke-linecap:round;stroke-linejoin:round;stroke-miterlimit:10;" x1="281.513" y1="277.788" x2="281.513" y2="284.368"/>
		<path style="fill:none;stroke:#212121;stroke-width:6;stroke-linejoin:round;stroke-miterlimit:10;" d="M225.817,292.048
			c0,0,23.548,5.76,48.365,0"/>
		
			<ellipse transform="matrix(0.2237 -0.9747 0.9747 0.2237 -107.4603 538.5826)" style="fill:none;stroke:#212121;stroke-width:6;stroke-linejoin:round;stroke-miterlimit:10;" cx="284.357" cy="336.748" rx="10.175" ry="10.175"/>
		<g>
			<path style="fill:none;stroke:#212121;stroke-width:6;stroke-linecap:round;stroke-linejoin:round;stroke-miterlimit:10;" d="
				M131.609,226.604c-13.667,1.984-29.996-8.056-44.245-24.412c-13.944-16.007-22.022-33.454-18.675-46.688l11.874-10.344
				l13.448,15.437l-8.797,7.663c0,0,5.052,26.986,34.814,39.963l8.797-7.663l14.101,16.187L131.609,226.604z"/>
			<g>
				
					<text transform="matrix(1 0 0 1 118.6548 158.8988)" style="fill:#212121; font-family:'Montserrat-Black'; font-size:24.3433px;">?</text>
				<path style="fill:none;stroke:#212121;stroke-width:6;stroke-linecap:round;stroke-linejoin:round;stroke-miterlimit:10;" d="
					M125.893,132.955c-14.182,0-25.678,7.712-25.678,17.224c0,5.946,4.492,11.189,11.324,14.284
					c-0.487,3.541-2.09,8.876-7.076,13.394c0,0,10.357-1.943,17.401-10.667c1.313,0.139,2.658,0.213,4.029,0.213
					c14.182,0,25.678-7.712,25.678-17.224C151.571,140.666,140.074,132.955,125.893,132.955z"/>
			</g>
			<g>
				
					<text transform="matrix(-1 0 0 1 152.2915 180.8226)" style="fill:#212121; font-family:'Montserrat-Black'; font-size:24.3433px;">...</text>
				<path style="fill:none;stroke:#212121;stroke-width:6;stroke-linecap:round;stroke-linejoin:round;stroke-miterlimit:10;" d="
					M155.775,190.407c6.832-3.095,11.324-8.338,11.324-14.284c0-8.089-8.315-14.873-19.524-16.723
					c-4.555,4.809-12.561,8.003-21.683,8.003c-1.371,0-2.716-0.074-4.029-0.213c-1.708,2.116-3.611,3.829-5.514,5.216
					c-0.393,1.197-0.606,2.44-0.606,3.716c0,9.513,11.496,17.224,25.678,17.224c1.371,0,2.716-0.074,4.029-0.213
					c7.044,8.724,17.401,10.667,17.401,10.667C157.865,199.282,156.262,193.948,155.775,190.407z"/>
			</g>
		</g>
		<g>
			
				<ellipse transform="matrix(0.2267 -0.974 0.974 0.2267 119.7195 513.979)" style="fill:none;stroke:#212121;stroke-width:6;stroke-linecap:round;stroke-linejoin:round;stroke-miterlimit:10;" cx="383.519" cy="181.601" rx="31.931" ry="31.931"/>
			<path style="fill:none;stroke:#212121;stroke-width:6;stroke-linecap:round;stroke-linejoin:round;stroke-miterlimit:10;" d="
				M346.696,152.697c8.55-10.712,21.719-17.575,36.49-17.575c25.772,0,46.664,20.892,46.664,46.664
				c0,19.186-11.579,35.668-28.13,42.839"/>
			
				<ellipse style="fill:none;stroke:#212121;stroke-width:6;stroke-linecap:round;stroke-linejoin:round;stroke-miterlimit:10;" cx="383.519" cy="181.601" rx="17.994" ry="31.931"/>
			
				<line style="fill:none;stroke:#212121;stroke-width:6;stroke-linecap:round;stroke-linejoin:round;stroke-miterlimit:10;" x1="383.519" y1="149.67" x2="383.519" y2="213.531"/>
			
				<line style="fill:none;stroke:#212121;stroke-width:6;stroke-linecap:round;stroke-linejoin:round;stroke-miterlimit:10;" x1="351.589" y1="181.6" x2="415.45" y2="181.6"/>
			
				<polyline style="fill:none;stroke:#212121;stroke-width:6;stroke-linecap:round;stroke-linejoin:round;stroke-miterlimit:10;" points="
				355.162,155.144 343.692,154.199 344.647,142.61 			"/>
			
				<text transform="matrix(1 0 0 1 339.6279 235.7147)" style="fill:#212121; font-family:'Montserrat-Black'; font-size:22.616px;">24H</text>
		</g>
		<g>
			
				<rect x="54.18" y="268.058" style="fill:none;stroke:#212121;stroke-width:6;stroke-linecap:round;stroke-linejoin:round;stroke-miterlimit:10;" width="102.5" height="65.1"/>
			
				<rect x="61.846" y="276.002" style="fill:none;stroke:#212121;stroke-width:4;stroke-linecap:round;stroke-linejoin:round;stroke-miterlimit:10;" width="87.167" height="45.548"/>
			<path style="fill:none;stroke:#212121;stroke-width:6;stroke-linecap:round;stroke-linejoin:round;stroke-miterlimit:10;" d="
				M155.68,342.325H55.18c-3.521,0-6.375-2.854-6.375-6.375v-2.792h113.25v2.792C162.055,339.471,159.201,342.325,155.68,342.325z"
				/>
			
				<rect x="79.43" y="283.776" style="fill:none;stroke:#212121;stroke-width:4;stroke-linecap:round;stroke-linejoin:round;stroke-miterlimit:10;" width="52" height="30"/>
			
				<polygon style="fill:none;stroke:#212121;stroke-width:4;stroke-linecap:round;stroke-linejoin:round;stroke-miterlimit:10;" points="
				79.43,283.776 105.43,298.776 131.43,283.776 			"/>
		</g>
		<g>
			<path style="fill:none;stroke:#212121;stroke-width:6;stroke-linecap:round;stroke-linejoin:round;stroke-miterlimit:10;" d="
				M427.125,304.852L427.125,304.852c0.637-2.073,0.982-4.274,0.982-6.556c0-12.313-9.981-22.294-22.294-22.294
				c-12.313,0-22.294,9.981-22.294,22.294c0,2.282,0.344,4.483,0.982,6.556l0,0l0,0c0.361,1.174,0.819,2.304,1.359,3.387
				l19.953,31.216l19.953-31.216C426.307,307.156,426.765,306.026,427.125,304.852L427.125,304.852z"/>
			
				<circle style="fill:none;stroke:#212121;stroke-width:4;stroke-linecap:round;stroke-linejoin:round;stroke-miterlimit:10;" cx="405.813" cy="298.296" r="11.582"/>
		</g>
		<g>
			<path style="fill:none;stroke:#212121;stroke-width:4;stroke-linejoin:round;stroke-miterlimit:10;" d="M360.417,276.313v-10.802
				h-4.88c-0.435-1.554-1.051-3.031-1.826-4.407l3.451-3.451l-7.638-7.638l-3.451,3.451c-1.376-0.775-2.853-1.391-4.407-1.826v-4.88
				h-10.802v4.88c-1.554,0.435-3.031,1.051-4.407,1.826l-3.451-3.451l-7.638,7.638l3.451,3.451
				c-0.776,1.376-1.392,2.853-1.826,4.407h-4.88v10.802h4.88c0.435,1.554,1.051,3.031,1.826,4.407l-3.451,3.451l7.638,7.638
				l3.451-3.451c1.376,0.776,2.854,1.392,4.407,1.826v4.88h10.802v-4.88c1.554-0.435,3.031-1.051,4.407-1.826l3.451,3.451
				l7.638-7.638l-3.451-3.451c0.776-1.376,1.392-2.853,1.826-4.407H360.417z M336.265,283.44c-6.919,0-12.528-5.609-12.528-12.528
				c0-6.919,5.609-12.528,12.528-12.528c6.919,0,12.528,5.609,12.528,12.528C348.792,277.831,343.184,283.44,336.265,283.44z"/>
			<path style="fill:none;stroke:#212121;stroke-width:3;stroke-linejoin:round;stroke-miterlimit:10;" d="M375.272,312.04
				l-0.908-6.995l-3.16,0.41c-0.412-0.97-0.935-1.874-1.553-2.701l1.945-2.525l-5.588-4.305l-1.945,2.525
				c-0.956-0.387-1.965-0.661-3.008-0.812l-0.41-3.16l-6.995,0.908l0.41,3.16c-0.97,0.412-1.874,0.935-2.701,1.553l-2.525-1.945
				l-4.304,5.588l2.525,1.945c-0.387,0.957-0.661,1.965-0.812,3.008l-3.16,0.41l0.908,6.995l3.16-0.41
				c0.412,0.97,0.935,1.874,1.553,2.701l-1.945,2.525l5.588,4.305l1.945-2.525c0.957,0.387,1.965,0.661,3.008,0.812l0.41,3.16
				l6.995-0.908l-0.41-3.16c0.97-0.412,1.875-0.935,2.701-1.553l2.525,1.945l4.304-5.588l-2.525-1.945
				c0.387-0.957,0.661-1.965,0.812-3.008L375.272,312.04z M360.23,318.686c-4.481,0.582-8.585-2.579-9.166-7.06
				c-0.581-4.481,2.579-8.585,7.06-9.166c4.481-0.581,8.585,2.579,9.166,7.06C367.871,314,364.71,318.104,360.23,318.686z"/>
		</g>
		
			<text transform="matrix(1 0 0 1 118.6548 158.8988)" style="fill:#212121; font-family:'Montserrat-Black'; font-size:24.3433px;">?</text>
		<g>
			<path style="fill:#212121;" d="M203.334,410.181c-3.113-0.967-6.238-2.046-9.286-3.207c-1.549-0.59-3.282,0.188-3.872,1.735
				c-0.59,1.549,0.188,3.282,1.736,3.872c3.165,1.206,6.41,2.326,9.643,3.33c0.296,0.092,0.596,0.136,0.891,0.136
				c1.279,0,2.465-0.825,2.864-2.111C205.801,412.354,204.917,410.672,203.334,410.181z"/>
			<path style="fill:#212121;" d="M185.472,110.116c-3.1,1.336-6.198,2.788-9.208,4.315c-1.478,0.75-2.067,2.555-1.318,4.033
				c0.529,1.043,1.583,1.643,2.678,1.643c0.457,0,0.92-0.104,1.355-0.325c2.899-1.471,5.883-2.869,8.869-4.156
				c1.521-0.656,2.223-2.421,1.567-3.942C188.759,110.162,186.996,109.459,185.472,110.116z"/>
			<path style="fill:#212121;" d="M244.754,96.943c-3.381,0.107-6.799,0.321-10.16,0.635c-1.649,0.154-2.862,1.617-2.707,3.267
				c0.145,1.554,1.453,2.72,2.983,2.72c0.094,0,0.188-0.004,0.283-0.013c3.238-0.303,6.532-0.509,9.789-0.612
				c1.656-0.052,2.956-1.438,2.904-3.093C247.795,98.19,246.387,96.879,244.754,96.943z"/>
			<path style="fill:#212121;" d="M184.986,403.191c-2.968-1.351-5.931-2.813-8.807-4.344c-1.462-0.778-3.279-0.227-4.058,1.237
				c-0.779,1.462-0.226,3.279,1.237,4.058c2.986,1.591,6.062,3.108,9.143,4.51c0.403,0.184,0.825,0.271,1.24,0.271
				c1.14,0,2.23-0.653,2.732-1.759C187.16,405.656,186.494,403.876,184.986,403.191z"/>
			<path style="fill:#212121;" d="M222.385,414.806c-3.218-0.57-6.447-1.247-9.596-2.014c-1.612-0.391-3.233,0.596-3.624,2.206
				c-0.392,1.609,0.596,3.232,2.206,3.624c3.271,0.796,6.625,1.5,9.967,2.092c0.177,0.031,0.353,0.047,0.527,0.047
				c1.428,0,2.693-1.023,2.951-2.478C225.104,416.652,224.016,415.095,222.385,414.806z"/>
			<path style="fill:#212121;" d="M224.493,98.842c-3.34,0.524-6.707,1.161-10.005,1.894c-1.618,0.359-2.638,1.961-2.279,3.579
				c0.311,1.398,1.55,2.35,2.926,2.35c0.215,0,0.434-0.023,0.653-0.072c3.176-0.705,6.418-1.319,9.635-1.823
				c1.637-0.257,2.756-1.792,2.499-3.429C227.665,99.704,226.122,98.587,224.493,98.842z"/>
			<path style="fill:#212121;" d="M241.865,417.017c-3.257-0.166-6.546-0.436-9.775-0.802c-1.637-0.198-3.132,0.996-3.319,2.643
				c-0.187,1.646,0.997,3.132,2.643,3.318c3.352,0.38,6.765,0.66,10.146,0.833c0.052,0.003,0.104,0.004,0.155,0.004
				c1.587,0,2.912-1.244,2.994-2.847C244.793,418.511,243.52,417.101,241.865,417.017z"/>
			<path style="fill:#212121;" d="M167.665,393.96c-2.77-1.707-5.526-3.526-8.192-5.407c-1.355-0.956-3.226-0.632-4.181,0.722
				c-0.955,1.355-0.631,3.226,0.722,4.181c2.768,1.952,5.628,3.841,8.504,5.612c0.49,0.303,1.034,0.446,1.571,0.446
				c1.007,0,1.99-0.506,2.557-1.426C169.515,396.676,169.076,394.829,167.665,393.96z"/>
			<path style="fill:#212121;" d="M204.62,103.254c-3.245,0.938-6.505,1.992-9.689,3.133c-1.56,0.559-2.371,2.277-1.812,3.836
				c0.439,1.225,1.593,1.989,2.824,1.989c0.336,0,0.678-0.057,1.012-0.177c3.066-1.099,6.206-2.114,9.331-3.017
				c1.592-0.46,2.509-2.123,2.05-3.715C207.874,103.711,206.211,102.795,204.62,103.254z"/>
			<path style="fill:#212121;" d="M171.448,120.378c-0.841-1.428-2.679-1.903-4.107-1.063c-2.91,1.713-5.805,3.541-8.604,5.433
				c-1.373,0.928-1.733,2.793-0.806,4.166c0.579,0.857,1.525,1.32,2.488,1.32c0.578,0,1.162-0.167,1.677-0.515
				c2.696-1.822,5.485-3.583,8.288-5.233C171.812,123.645,172.288,121.806,171.448,120.378z"/>
			<path style="fill:#212121;" d="M154.148,135.458c1.313-1.011,1.557-2.895,0.545-4.207c-1.011-1.313-2.895-1.557-4.208-0.545
				c-2.663,2.051-5.297,4.215-7.831,6.431c1.874,1.085,3.511,2.347,4.854,3.75C149.673,139.023,151.894,137.195,154.148,135.458z"/>
			<path style="fill:#212121;" d="M93.261,226.714c0.228,0.053,0.455,0.078,0.679,0.078c1.365,0,2.6-0.938,2.92-2.324
				c0.734-3.173,1.579-6.363,2.509-9.48c0.087-0.289,0.113-0.58,0.112-0.867c-1.136-0.941-2.268-1.929-3.394-2.958
				c-1.13,0.155-2.12,0.945-2.467,2.108c-0.967,3.237-1.843,6.549-2.606,9.844C90.641,224.729,91.647,226.34,93.261,226.714z"/>
			<path style="fill:#212121;" d="M345.697,135.339c2.586,1.988,5.14,4.08,7.591,6.219c0.569,0.496,1.272,0.739,1.972,0.739
				c0.836,0,1.668-0.348,2.262-1.028c1.089-1.249,0.96-3.144-0.288-4.233c-2.545-2.22-5.196-4.391-7.88-6.454
				c-1.313-1.009-3.196-0.764-4.207,0.55C344.137,132.446,344.384,134.329,345.697,135.339z"/>
			<path style="fill:#212121;" d="M90.356,246.484c0.104,0.011,0.207,0.016,0.309,0.016c1.52,0,2.823-1.15,2.981-2.694
				c0.332-3.238,0.771-6.508,1.304-9.72c0.271-1.635-0.833-3.18-2.468-3.451c-1.638-0.275-3.18,0.834-3.451,2.468
				c-0.554,3.334-1.009,6.73-1.354,10.091C87.509,244.842,88.708,246.315,90.356,246.484z"/>
			<path style="fill:#212121;" d="M151.635,382.647c-2.543-2.043-5.051-4.189-7.455-6.38c-1.226-1.116-3.122-1.027-4.238,0.197
				c-1.116,1.225-1.027,3.122,0.197,4.238c2.495,2.273,5.099,4.501,7.738,6.622c0.554,0.445,1.218,0.661,1.877,0.661
				c0.878,0,1.748-0.384,2.341-1.121C153.132,385.573,152.926,383.685,151.635,382.647z"/>
			<path style="fill:#212121;" d="M89.853,266.464c0.021,0,0.043,0,0.064-0.001c1.657-0.034,2.971-1.405,2.937-3.063
				c-0.023-1.116-0.036-2.236-0.035-3.359c0-2.143,0.043-4.314,0.13-6.452c0.067-1.656-1.221-3.052-2.876-3.119
				c-1.684-0.056-3.052,1.222-3.119,2.877c-0.089,2.217-0.135,4.469-0.135,6.692c0,1.165,0.012,2.328,0.036,3.488
				C86.889,265.163,88.225,266.464,89.853,266.464z"/>
			<path style="fill:#212121;" d="M130.53,362.188c-1.077-1.259-2.971-1.408-4.23-0.329c-1.259,1.076-1.407,2.971-0.33,4.23
				c2.193,2.563,4.5,5.097,6.857,7.526c0.588,0.607,1.371,0.912,2.154,0.912c0.752,0,1.505-0.281,2.088-0.846
				c1.189-1.153,1.219-3.053,0.066-4.242C134.865,367.097,132.643,364.658,130.53,362.188z"/>
			<path style="fill:#212121;" d="M118.734,346.534c-0.912-1.382-2.772-1.764-4.156-0.852c-1.383,0.913-1.764,2.773-0.851,4.156
				c1.857,2.814,3.832,5.612,5.869,8.315c0.59,0.782,1.488,1.194,2.398,1.194c0.629,0,1.262-0.196,1.803-0.604
				c1.323-0.997,1.587-2.878,0.59-4.201C122.425,351.939,120.523,349.244,118.734,346.534z"/>
			<path style="fill:#212121;" d="M109.584,342.325c0.434,0.23,0.916,0.36,1.408,0.36c0.473,0,0.95-0.125,1.396-0.36H109.584z"/>
			<path style="fill:#212121;" d="M365.095,367.09c-2.219,2.385-4.54,4.73-6.902,6.972c-1.201,1.141-1.251,3.039-0.11,4.241
				c0.59,0.621,1.382,0.934,2.176,0.934c0.742,0,1.485-0.273,2.065-0.824c2.451-2.326,4.861-4.761,7.164-7.235
				c1.129-1.214,1.061-3.111-0.152-4.24C368.121,365.809,366.223,365.879,365.095,367.09z"/>
			<path style="fill:#212121;" d="M381.729,351.251c-1.345-0.97-3.219-0.665-4.189,0.677c-1.908,2.643-3.923,5.26-5.987,7.775
				c-1.052,1.28-0.866,3.171,0.415,4.222c0.558,0.459,1.231,0.682,1.901,0.682c0.867,0,1.728-0.374,2.32-1.097
				c2.145-2.611,4.235-5.326,6.216-8.07C383.376,354.096,383.073,352.221,381.729,351.251z"/>
			<path style="fill:#212121;" d="M261.477,416.811c-3.236,0.233-6.535,0.369-9.803,0.403c-1.657,0.018-2.986,1.375-2.969,3.031
				c0.018,1.646,1.357,2.969,2.999,2.969c0.011,0,0.022,0,0.032,0c3.391-0.036,6.814-0.177,10.172-0.419
				c1.652-0.119,2.895-1.556,2.776-3.208C264.565,417.935,263.137,416.708,261.477,416.811z"/>
			<path style="fill:#212121;" d="M350.871,380.59c-2.493,2.089-5.087,4.128-7.708,6.06c-1.334,0.982-1.619,2.861-0.636,4.194
				c0.588,0.799,1.497,1.221,2.417,1.221c0.618,0,1.242-0.19,1.777-0.585c2.722-2.006,5.414-4.122,8.003-6.29
				c1.27-1.065,1.437-2.956,0.373-4.227C354.033,379.694,352.142,379.526,350.871,380.59z"/>
			<path style="fill:#212121;" d="M413.033,253.044c-0.068-1.655-1.439-2.929-3.123-2.872c-1.655,0.07-2.94,1.468-2.871,3.123
				c0.094,2.234,0.142,4.505,0.142,6.746c0,3.258-0.102,6.557-0.301,9.805c-0.102,1.654,1.156,3.077,2.81,3.179
				c0.063,0.004,0.126,0.006,0.188,0.006c1.572,0,2.894-1.225,2.991-2.815c0.207-3.371,0.313-6.794,0.313-10.175
				C413.181,257.715,413.131,255.361,413.033,253.044z"/>
			<path style="fill:#212121;" d="M409.304,246.202c0.105,0,0.21-0.005,0.316-0.016c1.647-0.173,2.844-1.648,2.671-3.296
				c-0.352-3.366-0.814-6.76-1.372-10.087c-0.274-1.635-1.825-2.736-3.456-2.462c-1.634,0.275-2.736,1.821-2.462,3.455
				c0.539,3.206,0.983,6.475,1.323,9.718C406.485,245.056,407.787,246.202,409.304,246.202z"/>
			<path style="fill:#212121;" d="M341.086,124.629c-2.805-1.892-5.707-3.718-8.624-5.429c-1.427-0.837-3.267-0.359-4.105,1.069
				c-0.838,1.429-0.359,3.268,1.07,4.105c2.809,1.648,5.604,3.408,8.306,5.229c0.514,0.347,1.097,0.513,1.674,0.513
				c0.964,0,1.911-0.464,2.49-1.323C342.823,127.419,342.46,125.555,341.086,124.629z"/>
			<path style="fill:#212121;" d="M406.677,226.421c1.614-0.376,2.616-1.99,2.24-3.604c-0.154-0.661-0.332-1.32-0.496-1.981
				c-1.739,1.106-3.556,2.1-5.442,2.971c0.029,0.125,0.064,0.249,0.093,0.374c0.323,1.384,1.557,2.318,2.919,2.318
				C406.219,226.501,406.448,226.475,406.677,226.421z"/>
			<path style="fill:#212121;" d="M392.449,326.573c-0.703,1.5-0.056,3.286,1.445,3.988c0.411,0.192,0.844,0.284,1.27,0.284
				c1.128,0,2.209-0.64,2.719-1.729c0.187-0.4,0.361-0.812,0.545-1.215l-3.868-6.052
				C393.88,323.439,393.177,325.018,392.449,326.573z"/>
			<path style="fill:#212121;" d="M392.082,334.139c-1.455-0.793-3.276-0.259-4.072,1.193c-1.563,2.86-3.236,5.707-4.975,8.462
				c-0.884,1.401-0.465,3.254,0.936,4.138c0.497,0.313,1.051,0.463,1.598,0.463c0.996,0,1.97-0.495,2.54-1.4
				c1.805-2.859,3.542-5.815,5.166-8.785C394.069,336.757,393.535,334.934,392.082,334.139z"/>
			<path style="fill:#212121;" d="M335.094,392.22c-2.734,1.765-5.56,3.465-8.396,5.053c-1.445,0.809-1.961,2.637-1.151,4.083
				c0.55,0.981,1.569,1.535,2.62,1.535c0.496,0,0.999-0.124,1.463-0.384c2.944-1.648,5.877-3.413,8.718-5.246
				c1.392-0.898,1.792-2.755,0.893-4.147C338.344,391.723,336.487,391.319,335.094,392.22z"/>
			<path style="fill:#212121;" d="M280.904,414.186c-3.189,0.636-6.443,1.18-9.673,1.616c-1.642,0.222-2.793,1.732-2.571,3.374
				c0.203,1.506,1.49,2.599,2.969,2.599c0.134,0,0.27-0.009,0.405-0.027c3.354-0.452,6.732-1.017,10.044-1.677
				c1.625-0.324,2.679-1.904,2.355-3.529C284.109,414.917,282.532,413.865,280.904,414.186z"/>
			<path style="fill:#212121;" d="M285.209,100.668c-3.301-0.726-6.668-1.356-10.008-1.873c-1.636-0.256-3.171,0.867-3.425,2.505
				c-0.254,1.637,0.868,3.171,2.505,3.424c3.218,0.499,6.461,1.106,9.641,1.805c0.217,0.047,0.433,0.07,0.646,0.07
				c1.378,0,2.619-0.955,2.927-2.356C287.852,102.624,286.827,101.024,285.209,100.668z"/>
			<path style="fill:#212121;" d="M265.098,97.549c-3.359-0.309-6.778-0.516-10.162-0.616c-1.648-0.06-3.038,1.254-3.088,2.91
				c-0.049,1.656,1.254,3.039,2.91,3.087c3.261,0.097,6.555,0.297,9.791,0.594c0.094,0.009,0.187,0.013,0.278,0.013
				c1.532,0,2.841-1.169,2.983-2.726C267.962,99.161,266.747,97.701,265.098,97.549z"/>
			<path style="fill:#212121;" d="M299.852,409.154c-3.082,1.03-6.243,1.978-9.395,2.815c-1.602,0.426-2.555,2.068-2.129,3.67
				c0.357,1.343,1.57,2.23,2.897,2.23c0.255,0,0.515-0.033,0.772-0.102c3.272-0.87,6.555-1.853,9.756-2.923
				c1.571-0.525,2.419-2.226,1.895-3.797C303.124,409.478,301.426,408.629,299.852,409.154z"/>
			<path style="fill:#212121;" d="M304.778,106.282c-3.185-1.134-6.447-2.182-9.696-3.115c-1.594-0.456-3.254,0.464-3.711,2.057
				c-0.457,1.592,0.464,3.254,2.057,3.711c3.129,0.898,6.27,1.907,9.337,3c0.333,0.119,0.673,0.175,1.007,0.175
				c1.232,0,2.389-0.766,2.826-1.994C307.153,108.555,306.339,106.838,304.778,106.282z"/>
			<path style="fill:#212121;" d="M323.513,114.318c-3.022-1.528-6.131-2.979-9.24-4.313c-1.522-0.65-3.286,0.052-3.939,1.575
				c-0.653,1.523,0.052,3.287,1.574,3.94c2.994,1.284,5.988,2.681,8.898,4.152c0.434,0.219,0.896,0.323,1.352,0.323
				c1.096,0,2.151-0.602,2.68-1.647C325.584,116.871,324.991,115.066,323.513,114.318z"/>
			<path style="fill:#212121;" d="M318.005,401.791c-2.93,1.409-5.942,2.742-8.954,3.964c-1.535,0.623-2.274,2.373-1.652,3.908
				c0.474,1.166,1.596,1.873,2.781,1.873c0.376,0,0.758-0.071,1.127-0.221c3.127-1.27,6.256-2.654,9.298-4.116
				c1.493-0.718,2.122-2.511,1.404-4.004C321.291,401.702,319.498,401.073,318.005,401.791z"/>
		</g>
		<path style="fill:none;stroke:#212121;stroke-width:4;stroke-linecap:round;stroke-linejoin:round;stroke-miterlimit:10;" d="
			M215.535,186.829c-1.929,0.239-3.904,0.41-5.921,0.504"/>
		<path style="fill:none;stroke:#212121;stroke-width:4;stroke-linecap:round;stroke-linejoin:round;stroke-miterlimit:10;" d="
			M263.167,164.475c0,0-15.074,15.135-39.099,20.818"/>
		<path style="fill:none;stroke:#212121;stroke-width:4;stroke-linecap:round;stroke-linejoin:round;stroke-miterlimit:10;" d="
			M218.43,178.188c-3.186,0.719-6.518,1.298-9.977,1.685"/>
		<path style="fill:none;stroke:#212121;stroke-width:4;stroke-linecap:round;stroke-linejoin:round;stroke-miterlimit:10;" d="
			M231.875,174.111c-1.832,0.699-3.743,1.369-5.728,1.993"/>
		<path style="fill:none;stroke:#212121;stroke-width:4;stroke-linecap:round;stroke-linejoin:round;stroke-miterlimit:10;" d="
			M258.119,159.4c0,0-6.407,5.445-17.263,10.792"/>
		<path style="fill:none;stroke:#212121;stroke-width:4;stroke-linecap:round;stroke-linejoin:round;stroke-miterlimit:10;" d="
			M254.365,153.667c0,0-18.59,14.167-42.228,18.667"/>
		<path style="fill:none;stroke:#212121;stroke-width:4;stroke-linecap:round;stroke-linejoin:round;stroke-miterlimit:10;" d="
			M243.617,152c0,0-15.384,7.093-26.667,12.796"/>
		<path style="fill:none;stroke:#212121;stroke-width:4;stroke-linecap:round;stroke-linejoin:round;stroke-miterlimit:10;" d="
			M278.717,167.5c0,0,4.931,13.002,15.153,17.794"/>
		<path style="fill:none;stroke:#212121;stroke-width:4;stroke-linecap:round;stroke-linejoin:round;stroke-miterlimit:10;" d="
			M274.667,157.667c0,0,11.108,5.833,15.637,15.5"/>
	</g>
</g>
</svg>
